<svg width="30" height="30" viewBox="0 0 30 30" fill="none" xmlns="http://www.w3.org/2000/svg">
<path fill-rule="evenodd" clip-rule="evenodd" d="M12.5 4.6875C8.18528 4.6875 4.6875 8.18528 4.6875 12.5C4.6875 13.2772 4.8007 14.0263 5.0109 14.7326C5.15859 15.2288 4.87603 15.7509 4.37977 15.8985C3.88351 16.0462 3.36149 15.7637 3.2138 15.2674C2.95249 14.3894 2.8125 13.4602 2.8125 12.5C2.8125 7.14974 7.14974 2.8125 12.5 2.8125C17.8503 2.8125 22.1875 7.14974 22.1875 12.5C22.1875 17.8503 17.8503 22.1875 12.5 22.1875C10.443 22.1875 8.53318 21.5453 6.96366 20.4506C6.53899 20.1543 6.43486 19.57 6.73108 19.1453C7.02729 18.7206 7.61168 18.6165 8.03634 18.9127C9.30141 19.7951 10.8389 20.3125 12.5 20.3125C16.8147 20.3125 20.3125 16.8147 20.3125 12.5C20.3125 8.18528 16.8147 4.6875 12.5 4.6875Z" fill="#EBEBEB"/>
<path fill-rule="evenodd" clip-rule="evenodd" d="M11.5625 6.875C11.5625 6.35723 11.9822 5.9375 12.5 5.9375C16.1244 5.9375 19.0625 8.87563 19.0625 12.5C19.0625 13.0178 18.6428 13.4375 18.125 13.4375C17.6072 13.4375 17.1875 13.0178 17.1875 12.5C17.1875 9.91117 15.0888 7.8125 12.5 7.8125C11.9822 7.8125 11.5625 7.39277 11.5625 6.875Z" fill="#EBEBEB"/>
<path fill-rule="evenodd" clip-rule="evenodd" d="M18.0871 18.0871C18.4532 17.721 19.0468 17.721 19.4129 18.0871L26.9129 25.5871C27.279 25.9532 27.279 26.5468 26.9129 26.9129C26.5468 27.279 25.9532 27.279 25.5871 26.9129L18.0871 19.4129C17.721 19.0468 17.721 18.4532 18.0871 18.0871Z" fill="#EBEBEB"/>
</svg>
