<?xml version="1.0" encoding="UTF-8"?>
<svg id="Layer_1" data-name="Layer 1" xmlns="http://www.w3.org/2000/svg" viewBox="0 0 103.66 105.38">
  <defs>
    <style>
      .cls-1 {
        fill: #f7911e;
      }

      .cls-2 {
        fill: #fed842;
      }

      .cls-3 {
        fill: #f8bd2a;
      }

      .cls-4 {
        stroke: #f7911e;
      }

      .cls-4, .cls-5 {
        fill: none;
        stroke-miterlimit: 10;
        stroke-width: 2px;
      }

      .cls-5 {
        stroke: #f7bc27;
      }
    </style>
  </defs>
  <path class="cls-3" d="m14.33,52.69c0-20.71,16.79-37.5,37.5-37.5V2.69C24.22,2.69,1.83,25.08,1.83,52.69s22.39,50,50,50v-12.5c-20.71,0-37.5-16.79-37.5-37.5Z"/>
  <path class="cls-2" d="m14.33,52.69c0,20.71,16.79,37.5,37.5,37.5v-23.57h-11.5c-.13-1.27-.29-1.91-.85-3.08-.91-1.27-1.48-1.81-2.56-2.56-1.3-.87-1.97-1-3.42-1.2-.2-.01-3.29.33-3.76,1.2-1.37.95-2.56,3.42-2.56,3.42l-.51,1.88h-2.9s-.17-1.37,0-1.88c.34-.04.68,0,.68,0v-7.86s13.23.17,27.39.15v-2.37h-27.39v-13.67s0-3.42,4.1-4.61c4.1-.85,10.25-1.2,10.25-1.2h13.03V15.19c-20.71,0-37.5,16.79-37.5,37.5Zm19,10.34c2.08,0,3.76,1.68,3.76,3.76s-1.68,3.76-3.76,3.76-3.76-1.68-3.76-3.76,1.68-3.76,3.76-3.76Z"/>
  <rect class="cls-2" x="38.8" y="40.47" width="9.57" height="9.57"/>
  <rect class="cls-2" x="27.1" y="40.64" width="9.57" height="9.57"/>
  <rect class="cls-2" x="50.42" y="40.47" width="1.41" height="9.57"/>
  <path class="cls-3" d="m50.42,50.04v-9.57h1.41v-5.64h-13.03s-6.15.34-10.25,1.2c-4.1,1.2-4.1,4.61-4.1,4.61v13.67h27.39v-4.27h-1.41Zm-13.75.17h-9.57v-9.57h9.57v9.57Zm11.7-.17h-9.57v-9.57h9.57v9.57Z"/>
  <path class="cls-3" d="m24.44,56.54v7.86s-.34-.04-.68,0c-.17.51,0,1.88,0,1.88h2.9l.51-1.88s1.19-2.47,2.56-3.42c.47-.87,3.56-1.21,3.76-1.2,1.45.2,2.11.32,3.42,1.2,1.08.75,1.66,1.29,2.56,2.56.56,1.16.73,1.8.85,3.08h11.5v-9.93c-14.15.02-27.39-.15-27.39-.15Z"/>
  <path class="cls-1" d="m101.83,52.69c0-27.61-22.39-50-50-50v12.5c20.71,0,37.5,16.79,37.5,37.5s-16.79,37.5-37.5,37.5v12.5c27.61,0,50-22.39,50-50Z"/>
  <path class="cls-3" d="m59.13,34.83s7.52.51,11.79,3.42c4.59,3.19,6.49,8.03,7.86,11.96.29,3.25,0,8.03,0,8.03,0,0-1.15.06-1.88,0-3.08-3.93-7.86-3.93-7.86-3.93h-17.21v2.37c5.87,0,11.9-.05,17.21-.15,5.64.85,7.01,4.44,7.01,4.44h2.73c1.2,0,1.2,1.03,1.2,1.03v3.42s0,1.2-1.2,1.2h-3.25s-1.2.17-1.2-1.2c-.68-2.22-1.03-2.73-2.05-3.76-1.32-1.25-2.22-2.05-4.27-1.88-1.94-.05-3.76.85-4.61,1.88-1.71,1.2-2.39,4.96-2.39,4.96h-9.18v23.57c20.71,0,37.5-16.79,37.5-37.5S72.54,15.19,51.83,15.19v19.64h7.3Zm8.72,35.71c-2.08,0-3.76-1.68-3.76-3.76s1.68-3.76,3.76-3.76,3.76,1.68,3.76,3.76-1.68,3.76-3.76,3.76Z"/>
  <path class="cls-3" d="m75.16,47.64c-1.32-3.71-2.6-5.43-6.51-7.34-4.81,0-6.69,0-6.69,0v9.91h13.2c.61-.04.64-.56,0-2.57Z"/>
  <rect class="cls-3" x="51.83" y="40.47" width="8.15" height="9.57"/>
  <path class="cls-1" d="m76.9,58.25c.73.06,1.88,0,1.88,0,0,0,.29-4.78,0-8.03-1.37-3.93-3.27-8.77-7.86-11.96-4.27-2.9-11.79-3.42-11.79-3.42h-7.3v5.64h8.15v9.57h-8.15v4.27h17.21s4.78,0,7.86,3.93Zm-14.94-17.94s1.88,0,6.69,0c3.91,1.91,5.19,3.64,6.51,7.34.64,2.01.61,2.53,0,2.57h-13.2v-9.91Z"/>
  <path class="cls-1" d="m63.4,61.66c.85-1.03,2.67-1.93,4.61-1.88,2.05-.17,2.95.63,4.27,1.88,1.03,1.03,1.37,1.54,2.05,3.76,0,1.37,1.2,1.2,1.2,1.2h3.25c1.2,0,1.2-1.2,1.2-1.2v-3.42s0-1.03-1.2-1.03h-2.73s-1.37-3.59-7.01-4.44c-5.31.1-11.34.14-17.21.15v9.93h9.18s.68-3.76,2.39-4.96Z"/>
  <rect class="cls-2" x="29.57" y="62.03" width="8.19" height="9.77"/>
  <rect class="cls-3" x="62.99" y="62.67" width="8.19" height="9.77"/>
  <path class="cls-5" d="m33.66,70.55c2.08,0,3.76-1.68,3.76-3.76s-1.68-3.76-3.76-3.76-3.76,1.68-3.76,3.76,1.68,3.76,3.76,3.76Z"/>
  <path class="cls-4" d="m67.85,63.03c-2.08,0-3.76,1.68-3.76,3.76s1.68,3.76,3.76,3.76,3.76-1.68,3.76-3.76-1.68-3.76-3.76-3.76Z"/>
</svg>