<?xml version="1.0" encoding="UTF-8"?>
<svg id="Layer_1" data-name="Layer 1" xmlns="http://www.w3.org/2000/svg" viewBox="0 0 103.66 105.38">
  <defs>
    <style>
      .cls-1 {
        fill: #fed842;
      }

      .cls-2 {
        fill: #f8bd2a;
      }

      .cls-3 {
        fill: none;
        stroke: #f7911e;
        stroke-miterlimit: 10;
        stroke-width: 3px;
      }

      .cls-4 {
        fill: #f7911e;
        fill-rule: evenodd;
      }
    </style>
  </defs>
  <circle class="cls-2" cx="51.83" cy="52.69" r="50"/>
  <circle class="cls-1" cx="51.83" cy="52.69" r="42.5"/>
  <g>
    <circle class="cls-3" cx="30.72" cy="68.78" r="4.29"/>
    <circle class="cls-3" cx="70.1" cy="68.78" r="4.29"/>
    <path class="cls-4" d="m71.47,54.54H20.58v-15.6s0-3.9,4.68-5.26c4.68-.97,11.7-1.36,11.7-1.36h23.2s8.58.58,13.45,3.9c5.24,3.64,7.41,9.16,8.97,13.65.33,3.7,0,9.16,0,9.16,0,0-1.31.07-2.14,0-3.51-4.48-8.97-4.48-8.97-4.48Zm-50.89,2.53v8.97s-.39-.05-.78,0c-.19.58,0,2.14,0,2.14h3.31l.58-2.14s1.36-2.82,2.92-3.9c.54-.99,4.06-1.38,4.29-1.36,1.65.23,2.41.37,3.9,1.36,1.23.86,1.89,1.47,2.92,2.92.64,1.33.83,2.06.97,3.51h23.59s.78-4.29,2.73-5.65c.97-1.17,3.05-2.21,5.26-2.14,2.34-.19,3.36.72,4.87,2.14,1.17,1.17,1.56,1.75,2.34,4.29,0,1.56,1.36,1.36,1.36,1.36h3.7c1.36,0,1.36-1.36,1.36-1.36v-3.9s0-1.17-1.36-1.17h-3.12s-1.56-4.09-7.99-5.07c-20.67.39-50.89,0-50.89,0Zm3.03-18.13h10.92v10.92h-10.92v-10.92Zm37.52-.19h-10.92v10.92h10.92v-10.92Zm-24.18,0h10.92v10.92h-10.92v-10.92Zm26.43-.2v11.31h15.06c.7-.04.73-.63,0-2.93-1.51-4.23-2.97-6.2-7.43-8.38-5.48,0-7.63,0-7.63,0Z"/>
  </g>
</svg>