<?xml version="1.0" encoding="UTF-8"?>
<svg id="Layer_1" data-name="Layer 1" xmlns="http://www.w3.org/2000/svg" viewBox="0 0 103.66 105.38">
  <defs>
    <style>
      .cls-1 {
        fill: #fed842;
      }

      .cls-2 {
        fill: #f8bd2a;
      }

      .cls-3 {
        fill: none;
        stroke: #f7911e;
        stroke-miterlimit: 10;
        stroke-width: 2px;
      }

      .cls-4 {
        fill: #f7911e;
        fill-rule: evenodd;
      }
    </style>
  </defs>
  <circle class="cls-2" cx="51.83" cy="52.69" r="50"/>
  <circle class="cls-1" cx="51.83" cy="52.69" r="37.5"/>
  <g>
    <circle class="cls-3" cx="33.33" cy="66.79" r="3.76"/>
    <circle class="cls-3" cx="67.85" cy="66.79" r="3.76"/>
    <path class="cls-4" d="m69.04,54.31H24.44v-13.67s0-3.42,4.1-4.61c4.1-.85,10.25-1.2,10.25-1.2h20.33s7.52.51,11.79,3.42c4.59,3.19,6.49,8.03,7.86,11.96.29,3.25,0,8.03,0,8.03,0,0-1.15.06-1.88,0-3.08-3.93-7.86-3.93-7.86-3.93Zm-44.6,2.22v7.86s-.34-.04-.68,0c-.17.51,0,1.88,0,1.88h2.9l.51-1.88s1.19-2.47,2.56-3.42c.47-.87,3.56-1.21,3.76-1.2,1.45.2,2.11.32,3.42,1.2,1.08.75,1.66,1.29,2.56,2.56.56,1.16.73,1.8.85,3.08h20.68s.68-3.76,2.39-4.96c.85-1.03,2.67-1.93,4.61-1.88,2.05-.17,2.95.63,4.27,1.88,1.03,1.03,1.37,1.54,2.05,3.76,0,1.37,1.2,1.2,1.2,1.2h3.25c1.2,0,1.2-1.2,1.2-1.2v-3.42s0-1.03-1.2-1.03h-2.73s-1.37-3.59-7.01-4.44c-18.11.34-44.6,0-44.6,0Zm2.66-15.89h9.57v9.57h-9.57v-9.57Zm32.88-.17h-9.57v9.57h9.57v-9.57Zm-21.19,0h9.57v9.57h-9.57v-9.57Zm23.16-.17v9.91h13.2c.61-.04.64-.56,0-2.57-1.32-3.71-2.6-5.43-6.51-7.34-4.81,0-6.69,0-6.69,0Z"/>
  </g>
</svg>